<svg xmlns="http://www.w3.org/2000/svg" viewBox="0 0 1654.51 225.25"><title>Asset 2</title><g id="Layer_2" data-name="Layer 2"><g id="Layer_1-2" data-name="Layer 1"><path d="M419.62,81.88q3,.6,5.64,1.29a23.09,23.09,0,0,1,4.94,1.88,14.51,14.51,0,0,1,4.06,3.16,15.84,15.84,0,0,1,3,5.35,26.29,26.29,0,0,1-.79,19,71.24,71.24,0,0,1-9,17.71,64.58,64.58,0,0,1-14.24,15,47.39,47.39,0,0,1-17.91,8.51,31.07,31.07,0,0,1-19.79-2.08,34.91,34.91,0,0,1-12-8.41,37.93,37.93,0,0,1-7.81-13.16A50.43,50.43,0,0,1,353,110.38a64.34,64.34,0,0,1,4.45-19.2A99.76,99.76,0,0,1,365,75.55a143.17,143.17,0,0,1,9.69-14.25,56.19,56.19,0,0,1,6.93-8.21q3.76-3.66,7.92-7l4.35-4.15-4.55-3.37q-4.75-3.55-5.94-8a18.2,18.2,0,0,1-.1-9,28.26,28.26,0,0,1,3.76-8.7,37.56,37.56,0,0,1,5.84-7.13A19.73,19.73,0,0,1,401,1.14a27.17,27.17,0,0,1,9.4-1.09,20.33,20.33,0,0,1,8.7,2.57,15.56,15.56,0,0,1,6.24,6.44,13.52,13.52,0,0,1,1.38,7.32,20.72,20.72,0,0,1-2.37,7.32q-1.39,2.78-4.36,1,1.19-4,2.28-7.22t-1.09-7.23c-1.72-2.77-3.66-4.35-5.84-4.75a10.15,10.15,0,0,0-6.73,1.29,25.41,25.41,0,0,0-6.72,5.54A47.88,47.88,0,0,0,396.27,20,46.67,46.67,0,0,0,392.51,28a12.83,12.83,0,0,0-1,6.23c.26,1.58.75,2.57,1.48,3a16.1,16.1,0,0,0,3.46,1.19l3.66.79c1.26.26,2.54.59,3.86,1A9.72,9.72,0,0,1,405.76,42a7,7,0,0,1,1.39,2.27A1.53,1.53,0,0,1,407,46a8.53,8.53,0,0,1-1.38,1.29c-1.72,1.06-3.4,2.11-5.05,3.17s-3.26,2.17-4.85,3.36a76.56,76.56,0,0,0-15.33,15.34,134.78,134.78,0,0,0-11.58,18.5q-2.19,4.35-4.06,8.81a48.86,48.86,0,0,0-2.87,9.4A61.16,61.16,0,0,0,360.74,120a45.62,45.62,0,0,0,2.87,14,26.74,26.74,0,0,0,4.95,8.11,26.1,26.1,0,0,0,7.22,5.74,26.66,26.66,0,0,0,18.11,2.57A46.58,46.58,0,0,0,409,144.12a57,57,0,0,0,12.47-10.69,59.42,59.42,0,0,0,9-13.75,50.19,50.19,0,0,0,4.55-15,32.65,32.65,0,0,0,.2-6.23,15.7,15.7,0,0,0-1.38-5.64,13.77,13.77,0,0,0-3.27-4.46,10.72,10.72,0,0,0-5.44-2.47,33.56,33.56,0,0,0-8-.59A13.71,13.71,0,0,0,409.72,88Q406,90.8,402.5,93.76a26.57,26.57,0,0,0-5.84,7.12,8.72,8.72,0,0,1-2.37,2.57,1,1,0,0,1-1.09.2,6.34,6.34,0,0,0-1.68-.2,41.53,41.53,0,0,1,7.32-9.89,45.76,45.76,0,0,1,5-4.65c1.71-1.39,3.49-2.8,5.34-4.26q2.17-1.58,4.35-2.87t4.36-2.67a65.7,65.7,0,0,0,9.3-6.83,42.12,42.12,0,0,0,8.11-9.2,21,21,0,0,0,3.46-10.29q.3-5.34-4.45-10.09a13,13,0,0,0-1.38-1.19c-.53-.39-1.32-.92-2.38-1.58-.39-1.32-.23-2,.5-1.88a6.94,6.94,0,0,1,2.87,1.28,19.85,19.85,0,0,1,3.56,3.17,13,13,0,0,1,2.37,3.37,17.22,17.22,0,0,1,1.49,9.59,22.39,22.39,0,0,1-3.56,9,47.84,47.84,0,0,1-7.62,8.7Q425.36,77.54,419.62,81.88Z"/><path d="M194.52,59.32a3.55,3.55,0,0,0,2.08.79h2.67a4.68,4.68,0,0,0,2.47-.59c.66-.26,1.06-1.22,1.19-2.87a26,26,0,0,1,.59-4.06q.6-2.76-2.37-3.76c-.93-.26-1.88-.56-2.87-.89A5.19,5.19,0,0,0,195,48a9.41,9.41,0,0,0-1.18,4.55c0,1.59-.07,3.24-.2,4.95A1.73,1.73,0,0,0,194.52,59.32Z"/><path d="M328.39,74.86a2.1,2.1,0,0,1-1.18-1.09c-.53,3-1.09,6.2-1.69,9.5a50.92,50.92,0,0,1-2.47,9.1q-2.18,5.14-3.66,8.41t-2.67,5.34a13,13,0,0,1-2.28,3.07,10,10,0,0,1-2.27,1.58,16.79,16.79,0,0,1-1.39-5.54c-.13-1.84-.27-3.69-.4-5.54V82.28a21.92,21.92,0,0,0-2-9.7,13.91,13.91,0,0,0-4-5.14,9.73,9.73,0,0,0-6.09-1.79,37.62,37.62,0,0,0-6.73,7.43,83.49,83.49,0,0,0-5.14,8.6L282.68,88a2.72,2.72,0,0,1-1.09,1.18c-.46.27-1.09.14-1.88-.39a16.05,16.05,0,0,0-.1-1.88,16.17,16.17,0,0,1-.1-1.88V68.82a8.11,8.11,0,0,0-.59-3.17,3.74,3.74,0,0,0-2.57-2,6.27,6.27,0,0,1-1.88-.7c-.6-.32-1.23-.62-1.88-.89a8.8,8.8,0,0,0-3,.2q.39,5.94.79,11.38l.15,2c-.41,1.34-.79,2.66-1.14,3.92q-.8,2.86-1.39,6a147,147,0,0,1-3.85,15.44,65.63,65.63,0,0,1-6.44,14.25,2.86,2.86,0,0,1-1,1.18,11.19,11.19,0,0,0-1.38,1.19c-.4-.66-.73-1.19-1-1.58a4.71,4.71,0,0,1-.59-1.19q-.6-3-1.19-5.94a44.41,44.41,0,0,1-.79-5.93q-.41-7.92-.5-15.74t.3-15.73c.13-1.19.23-2.4.3-3.66s.1-2.47.1-3.66c0-.26-.34-.72-1-1.39-.67,0-1.42,0-2.28.1s-1.68.17-2.47.3l-3.17,4.16-3-2.77a8.19,8.19,0,0,0-4.55-2.28A7.58,7.58,0,0,0,231,64.07a6.66,6.66,0,0,0-1.59,1.29q-.58.69-1.38,1.68a45,45,0,0,0-4.69,7.33h-.06c-.09.21-.18.46-.27.68a50,50,0,0,0-2.8,6.94q-.83,2.63-1.41,5.29c-.16.4-.31.79-.46,1.14q-2,4.36-3.86,8.61t-4.06,8.61a11.53,11.53,0,0,1-2.57,3.66,12.57,12.57,0,0,1-4.16,2.47,9.63,9.63,0,0,1-1.78-6.92q.19-4,.1-7.72a19.9,19.9,0,0,1,1.29-7.52,2.71,2.71,0,0,0,.29-1.58,5.52,5.52,0,0,1,.1-1.78v-5c0-1.65.07-3.33.2-5a9.6,9.6,0,0,0-.2-3.36,4.37,4.37,0,0,0-1.78-2.57,11.25,11.25,0,0,0-3.86-2,5.08,5.08,0,0,0-4.25.79c.13,1.06.23,2.08.29,3.07s.1,2,.1,3.06q-.19,4.36-.39,8.61c-.14,2.84-.2,5.78-.2,8.81,0,.14,0,.28,0,.42a36.39,36.39,0,0,1-8.58,11.78c-9.87,9-23.22,12.91-35.87,16.18a337.51,337.51,0,0,1-81.64,10.44A393.94,393.94,0,0,1,0,126c1.9,1.36,3.82,2.68,5.78,3.94a396.73,396.73,0,0,0,57.8,4.5,343.57,343.57,0,0,0,82.55-9.59c12.73-3.12,26.12-6.64,36.86-14.51A43.85,43.85,0,0,0,193.9,98.78c0,.14,0,.28,0,.42.19,2.17.36,4.39.49,6.63a10.54,10.54,0,0,0,1.68,4.45,18.54,18.54,0,0,0,3.07,3.46q4.76,4,9.7,0a19.91,19.91,0,0,0,5.34-7.71l3.21-7.79c0,.35,0,.7,0,1.06a13.93,13.93,0,0,0,2.18,7.72,8.36,8.36,0,0,0,6.73,3.75,7.92,7.92,0,0,0,3.26-.19,10,10,0,0,0,2.87-2,21.37,21.37,0,0,0,4.55-5.25c1.06-1.78,2.18-3.85,3.37-6.23a27,27,0,0,0,1.68-5,19.06,19.06,0,0,1,1.88-4.94,3.24,3.24,0,0,0,1.39.39V90a11.24,11.24,0,0,0,.19,2.17c.27,2.64.5,5.22.7,7.72a65.7,65.7,0,0,0,1.09,7.72,35.28,35.28,0,0,0,1.18,5.14q.8,2.58,1.78,5,2,4.35,4.36,4.55c1.58.14,3.16-1.12,4.75-3.76A71.24,71.24,0,0,0,265.26,106a95.93,95.93,0,0,0,3.37-11.58q1.19-5.45,1.78-9.7c.17-1.25.36-2.37.56-3.4.08,1,.15,2.08.23,3.11.26,3.56.4,7.12.4,10.68v10.69c0,1.06,0,2.41.1,4s.09,3.4.09,5.25v9.3a7.26,7.26,0,0,0,2.18,5.34,3.24,3.24,0,0,0,2.38,1,8.55,8.55,0,0,0,3-.59l.8-4.35c0-.93,0-2.18.09-3.76s.1-3.2.1-4.85,0-3.27.1-4.85.1-2.84.1-3.76A45.74,45.74,0,0,1,286.83,89c.8-1.32,1.52-2.68,2.18-4.06s1.39-2.74,2.18-4.06c1.05-1.84,2.14-3.56,3.26-5.14s2.28-3.23,3.47-5a3.35,3.35,0,0,1,1.28-.69,9.88,9.88,0,0,0,1.88-.89c.27,1.32.5,2.47.7,3.46a16.23,16.23,0,0,1,.29,3.07,58.72,58.72,0,0,1,.1,5.93c-.07,2,0,4,.1,6.14q0,4,.1,8t.3,8a32.7,32.7,0,0,0,.81,5.34,14.62,14.62,0,0,0,2.23,5c1.63,2.51,3.5,3.89,5.63,4.16s4.06-1.12,5.77-4.16l.6-1.19q3.36-7.32,6.33-14.25a71.94,71.94,0,0,0,4.55-16.22c.26-.93.53-2,.79-3.27s.53-2.47.79-3.66C329.51,75.29,328.92,75.05,328.39,74.86ZM243.5,78.72Q241.31,86,239,92.87a27.75,27.75,0,0,1-8,12c-1.46,1.19-2.57,1.62-3.37,1.28a3.45,3.45,0,0,1-1.78-2.37,15,15,0,0,1-.59-4.45,26,26,0,0,1,.4-4.75,68.89,68.89,0,0,1,3.95-14.35,53.86,53.86,0,0,1,7.72-13.36,5.42,5.42,0,0,1,2.38,2,20.18,20.18,0,0,1,2.07,3.46A22.57,22.57,0,0,1,243.2,76,6.38,6.38,0,0,1,243.5,78.72Z"/><path d="M476.28,59.32h3a4.79,4.79,0,0,0,2.51-1,2.63,2.63,0,0,0,1-2.17,18,18,0,0,1,.6-4.06c.39-1.65.26-2.67-.4-3.07a5,5,0,0,0-2.14-1.19c-.9-.26-1.74-.52-2.52-.79a2.48,2.48,0,0,0-2.13.2,2.28,2.28,0,0,0-1.35,1.58q-.78,2.39-1.37,4.75a11.91,11.91,0,0,0-.19,4.75A5.62,5.62,0,0,0,476.28,59.32Z"/><path d="M1653.42,149.64c-9.26-17.53-25-31.16-42.56-40.47-18.27-9.68-38.51-15-58.78-19-49.39-9.75-100-12-150.32-11.77-56.63.22-114.75,2.19-170.49,12.8-66.39,12.64-136.13,23.88-203.83,18.32q-22-1.8-43.8-4.84A684.88,684.88,0,0,1,901.15,88c-27-7.22-53-17.06-79.51-25.76C788.91,51.5,753.22,43.33,718.77,49.86A62.63,62.63,0,0,0,694.07,60c-7.71,5.2-15.65,10.71-22.58,17.13-7.34,6.81-13,15.06-19.52,22.56a43.72,43.72,0,0,1-5.94,5.64,17.49,17.49,0,0,1-6,3.26,6.79,6.79,0,0,1-5.24-.49c-1.59-.86-2.84-2.8-3.77-5.84a40.9,40.9,0,0,1,.4-5.24c.26-2,.62-4.12,1.09-6.24s.95-4.18,1.48-6.23,1-3.86,1.39-5.44a31.63,31.63,0,0,0,10.88-5.54q5.14-4,7.92-12.87a8.16,8.16,0,0,0,.3-4,8.3,8.3,0,0,0-1.88-4.46,6.43,6.43,0,0,0-4.46-2.17c-1.91-.2-4.39.69-7.42,2.67l-2.08,2.08c-.72.72-1.42,1.48-2.07,2.27a58.37,58.37,0,0,0-9.37,18.57,3.27,3.27,0,0,1-.53.23A55.3,55.3,0,0,0,622,79.31q-2.47,2-4.94,4.15t-4.75,4.45L608.24,92l-4.36,4c-1.84-1.32-3.53-2.6-5-3.86A44.69,44.69,0,0,0,594,88.61a7.56,7.56,0,0,1-3.46-4.26,9.37,9.37,0,0,1,.1-5.24,52.81,52.81,0,0,1,1.78-5.54,11.8,11.8,0,0,1,3.76-4.36c1.84-1.58,3.33-2.34,4.45-2.27a3.29,3.29,0,0,1,2.67,1.68,1.87,1.87,0,0,0,2.08.59c.72-.26.62-1.12-.3-2.57a15.22,15.22,0,0,0-2.67-2.77,10.4,10.4,0,0,0-4.45-2,9.27,9.27,0,0,0-6.53.79,13.71,13.71,0,0,0-5.35,4.55A29.05,29.05,0,0,0,583.5,74a38.86,38.86,0,0,1-4.06,4.65q-2.48,2.48-5,5t-5,4.65Q566.88,90.4,565.3,92c-.67.66-1.36,1.32-2.08,2s-1.49,1.32-2.28,2c-1.72-1.32-3.36-2.6-5-3.86a52.71,52.71,0,0,0-4.94-3.46q-5.16-3.36-3.17-9.5a29.89,29.89,0,0,1,2.77-6.73,19,19,0,0,1,4.75-5.54q3.36-2.78,5.54-2c1.45.53,2.38,2.11,2.77,4.75a14.06,14.06,0,0,1,.4,3.36v6.34c1.58.53,2.5.06,2.77-1.39a13,13,0,0,0,.69-5.74,15.59,15.59,0,0,0-1.68-5.64A14.76,14.76,0,0,0,562.23,62,13.76,13.76,0,0,0,557,59.32a9.51,9.51,0,0,0-6.33,1,16.43,16.43,0,0,0-6.43,5.74A33.14,33.14,0,0,0,540.56,74a13.37,13.37,0,0,0-.69,4.22c-.7,1.3-1.39,2.6-2.08,3.9-1.06,2-2.11,3.89-3.17,5.74a53.19,53.19,0,0,1-3.56,5.44c-1.58,2.17-3.3,4.32-5.14,6.43a43.72,43.72,0,0,1-5.94,5.64,17.52,17.52,0,0,1-6,3.26,6.79,6.79,0,0,1-5.24-.49c-1.58-.86-2.84-2.8-3.76-5.84a40.9,40.9,0,0,1,.4-5.24c.26-2,.62-4.12,1.08-6.24s1-4.18,1.49-6.23,1-3.86,1.38-5.44a31.67,31.67,0,0,0,10.89-5.54q5.15-4,7.91-12.87a7.92,7.92,0,0,0,.3-4,8.3,8.3,0,0,0-1.88-4.46,6.4,6.4,0,0,0-4.45-2.17q-2.88-.3-7.42,2.67l-2.08,2.08c-.73.72-1.42,1.48-2.08,2.27a58.6,58.6,0,0,0-9.26,18.25,2.83,2.83,0,0,0-.24.55,13.92,13.92,0,0,0-.49,2.18l-.09.49c-.06.25-.11.5-.17.74,0,.05,0,.11,0,.15-.13.4-.3.86-.5,1.39s-.43,1.26-.69,2.18c-.66,1.71-1.28,3.39-1.88,5s-1.22,3.27-1.88,4.85l-5.54,9.9c-.79,1.45-1.42,2.57-1.88,3.36a20.2,20.2,0,0,1-1.29,2,8.08,8.08,0,0,1-1.28,1.38l-1.88,1.59a5.42,5.42,0,0,1-.4-2.08V107q-.2-6.92-.1-13.75T483,79.5v-5A6.85,6.85,0,0,0,481,69.81l-7.76-.6a20.93,20.93,0,0,0,.2,3.76q.4,11.28.7,22.56t.89,22.56a22.72,22.72,0,0,1-1.1,8.32,28,28,0,0,1-3.85,7.32A160.31,160.31,0,0,0,452.69,161q-2.37,4.74-4.94,9.3t-4.95,9.3a35.57,35.57,0,0,0-3.56,8.71c-.53,2.63-1,5.27-1.49,7.91s-.82,5.35-1.09,8.12a17,17,0,0,0,0,5.14c.27,1.72.53,3.43.8,5.15a9,9,0,0,0,1.78,4.15,9.65,9.65,0,0,0,3.36,2.77,31.69,31.69,0,0,0,12.27,3.57,12.61,12.61,0,0,0,6.73-1,26.24,26.24,0,0,0,5.94-4A18.58,18.58,0,0,0,472,214a48.91,48.91,0,0,0,2.47-7.42,182.55,182.55,0,0,0,4-22.66q1.24-11.37,2.79-22.85,1-8.91,1.26-17.91T483,125v-2.08a5.5,5.5,0,0,1,.4-2.08q.39-1.19.69-2.37a4.18,4.18,0,0,1,1.09-2,39.84,39.84,0,0,0,5.64-8.11,91.05,91.05,0,0,1,5-8.51c.7-1.15,1.29-2.22,1.79-3.22,0,.6,0,1.2,0,1.83a15.46,15.46,0,0,0,1.88,7.72,19.44,19.44,0,0,0,5.24,5.94,7.9,7.9,0,0,0,8.31.79c2.11-1.19,4-2.28,5.74-3.27a33,33,0,0,0,5.44-4.05,61.36,61.36,0,0,0,6.34-6.83q3.45-4.26,8.21-11.38a33.17,33.17,0,0,0,2.15-3.92,13,13,0,0,0,4.58,5.9q3.36,2.37,7.32,4.95a13.77,13.77,0,0,1,2.77,2.27,6.78,6.78,0,0,1,1.58,3.47l-1.29,2.17a10.66,10.66,0,0,1-1.68,2.18,77.1,77.1,0,0,0-5.54,7.52l-5.14,7.92a49.83,49.83,0,0,0-6.24,15.33,43.23,43.23,0,0,0-.1,16.72,13.38,13.38,0,0,0,1.59,3,7.78,7.78,0,0,0,3.36,2.77.4.4,0,0,1,.3.1.37.37,0,0,0,.29.1,21.92,21.92,0,0,0,7.23,0,10.64,10.64,0,0,0,6.23-3.76,31.86,31.86,0,0,1,2.08-3,33.87,33.87,0,0,0,2.08-3,35.76,35.76,0,0,0,4-9.3,90,90,0,0,0,2.08-9.89q.79-5.94,1.29-9.4a27.13,27.13,0,0,0,.2-6.43,33,33,0,0,0-1.29-6.24c-.66-2.17-1.65-5-3-8.41,1.45-2,3-3.92,4.65-5.84A35.7,35.7,0,0,1,574,87.42c1.45-1,2.94-2.21,4.46-3.46a36.75,36.75,0,0,0,4.45-4.46,18.38,18.38,0,0,0,1.68,5.64,10.48,10.48,0,0,0,3.66,4.26Q590,90.78,591.91,92c1.25.79,2.48,1.58,3.66,2.38a13.5,13.5,0,0,1,2.77,2.27,8.08,8.08,0,0,1,1.78,3.47l-3,4.35c-1.46,1.85-2.84,3.69-4.16,5.54s-2.64,3.76-4,5.74c0-.13-.39.46-1.19,1.78a41.07,41.07,0,0,0-2.57,5.34,38.68,38.68,0,0,0-2.17,7.52,22,22,0,0,0,0,8.32,13,13,0,0,0,1.58,3,7.71,7.71,0,0,0,3.36,2.77.82.82,0,0,0,.6.2,19,19,0,0,0,7.22.2,10.35,10.35,0,0,0,6.23-4,54.39,54.39,0,0,0,4.16-5.93,20,20,0,0,0,2.28-6.24,51.85,51.85,0,0,0,1.08-9,64.41,64.41,0,0,0-.49-10.49,45.76,45.76,0,0,0-2.67-10.69c1.45-2,3-3.92,4.65-5.84a35.7,35.7,0,0,1,5.64-5.24q3-2.37,7.42-6.23c.72-.63,1.42-1.23,2.11-1.8-.23,1-.44,1.86-.63,2.69-.39,1.71-.76,3.43-1.09,5.14a47.67,47.67,0,0,0-.69,5.25q-.2,2.67-.2,6a15.57,15.57,0,0,0,1.88,7.72,19.48,19.48,0,0,0,5.25,5.94,7.9,7.9,0,0,0,8.31.79q3.17-1.78,5.74-3.27a33.41,33.41,0,0,0,5.44-4.05c8.85-7.94,15.73-18.15,24.33-26.45a141.94,141.94,0,0,1,23.55-18.53c14.41-9,33.16-10.28,49.73-9.88,34.74.83,67.89,12.45,100.39,23.68,14.84,5.13,29.7,10.22,44.81,14.47a678.13,678.13,0,0,0,83,17.64q27.95,4.18,56.14,6.29c34.57,2.63,69.93,3.88,104.25-.81,41.84-5.72,83-16.07,124.65-21.37a1172.52,1172.52,0,0,1,131.74-9.28c50-.68,100.25,1.86,149.4,11.18,42.65,8.08,87.51,23.5,112.19,59.2C1654.16,151.06,1653.8,150.35,1653.42,149.64Zm-1015.1-82a49.45,49.45,0,0,1,3.06-6.23,40,40,0,0,1,3.37-4.95c1.12-1.39,2-2.47,2.67-3.27a4.94,4.94,0,0,1,1.78.4A4.51,4.51,0,0,1,651,55a4.68,4.68,0,0,1,.89,2.68,9.34,9.34,0,0,1-.89,4A28.23,28.23,0,0,1,646.43,69a18.75,18.75,0,0,1-4.55,3.76,11.11,11.11,0,0,1-3.66,1.38,7.51,7.51,0,0,0-1.88.4A31.31,31.31,0,0,1,638.32,67.63Zm-126.06,0a49.47,49.47,0,0,1,3.07-6.23,40,40,0,0,1,3.36-4.95c1.12-1.39,2-2.47,2.67-3.27a5,5,0,0,1,1.79.4A4.58,4.58,0,0,1,524.93,55a4.75,4.75,0,0,1,.89,2.68,9.48,9.48,0,0,1-.89,4A28.5,28.5,0,0,1,520.38,69a19,19,0,0,1-4.56,3.76,11.11,11.11,0,0,1-3.66,1.38,7.63,7.63,0,0,0-1.88.4A32.42,32.42,0,0,1,512.26,67.63Zm-37.6,72.43q-.41,10.09-1.39,19.79t-2.57,19.59c-.52,2.64-.95,5.34-1.28,8.12s-.7,5.47-1.09,8.11c-.27,1.32-.5,2.6-.69,3.86s-.43,2.47-.7,3.66a23.71,23.71,0,0,1-2.57,7.12,36.86,36.86,0,0,1-4.16,5.94,12.12,12.12,0,0,1-5.83,4.16,17.73,17.73,0,0,1-7,.59,7.61,7.61,0,0,1-6.53-5.15c-.26-.92-.53-1.88-.79-2.86a25.25,25.25,0,0,1-.6-3.07,67.43,67.43,0,0,1,.2-8.91,28,28,0,0,1,2.18-8.51,7.25,7.25,0,0,0,.59-1.58c.14-.53.27-1.12.4-1.78a34.12,34.12,0,0,1,3.56-10.49q2.58-4.76,5.34-9.5,1.79-3,3.47-6a63.63,63.63,0,0,0,3.06-6.44q1.2-2.77,2.38-5.14a24.31,24.31,0,0,1,3-4.55c1.06-1.32,2-2.64,2.87-4s1.81-2.64,2.87-4a17.14,17.14,0,0,1,1.88-2q1.08-1,2.67-2.37a17,17,0,0,0,.59,3.06A4.75,4.75,0,0,1,474.66,140.06Zm86.28-19.79q-.8,4.56-2,9.1c-.79,3-1.65,6.07-2.57,9.11a20.62,20.62,0,0,1-3.17,7q-2.18,3.08-4.75,6a19,19,0,0,1-3.26,3,6.35,6.35,0,0,1-4.26,1,6.85,6.85,0,0,1-2-3.66,34.37,34.37,0,0,1-.79-5.35,33.37,33.37,0,0,1,.1-5.74,32.62,32.62,0,0,1,.89-5,55.09,55.09,0,0,1,5.64-13.56,92.41,92.41,0,0,1,8.41-12c.79-1.06,1.55-2.11,2.28-3.17a8.3,8.3,0,0,1,2.87-2.57,2.73,2.73,0,0,1,2,1.29,4.62,4.62,0,0,1,.39,1.88c.13,2.11.27,4.22.4,6.33A34.37,34.37,0,0,1,560.94,120.27Zm28.18-4.12a.3.3,0,0,1-.08-.23C589.1,115.92,589.11,116,589.12,116.15Zm13.18,9.07a39.38,39.38,0,0,1-7.91,13.06,25.67,25.67,0,0,1-3.37,3.17,2.9,2.9,0,0,1-3.76,0c-.79-.66-1.32-2-1.58-4a25.37,25.37,0,0,1,.2-7,38.31,38.31,0,0,1,2.57-8.9,37,37,0,0,1,5.94-9.6,3.14,3.14,0,0,1,.59-.59l.2-.2.79-1a25.09,25.09,0,0,0,2.37-3.17,7.2,7.2,0,0,1,3-2.57,2.55,2.55,0,0,1,1.78,1.29,4.47,4.47,0,0,1,.4,1.88q.39,3.17.59,7.71A25.43,25.43,0,0,1,602.3,125.22Z"/></g></g></svg>