<svg xmlns="http://www.w3.org/2000/svg" viewBox="0 0 1144.15 225.25"><title>Asset 1</title><g id="Layer_2" data-name="Layer 2"><g id="Layer_1-2" data-name="Layer 1"><path d="M419.62,81.88q3,.6,5.64,1.29a23.09,23.09,0,0,1,4.94,1.88,14.51,14.51,0,0,1,4.06,3.16,15.84,15.84,0,0,1,3,5.35,26.29,26.29,0,0,1-.79,19,71.24,71.24,0,0,1-9,17.71,64.58,64.58,0,0,1-14.24,15,47.39,47.39,0,0,1-17.91,8.51,31.07,31.07,0,0,1-19.79-2.08,34.91,34.91,0,0,1-12-8.41,37.93,37.93,0,0,1-7.81-13.16A50.43,50.43,0,0,1,353,110.38a64.34,64.34,0,0,1,4.45-19.2A99.76,99.76,0,0,1,365,75.55a143.17,143.17,0,0,1,9.69-14.25,56.19,56.19,0,0,1,6.93-8.21q3.76-3.66,7.92-7l4.35-4.15-4.55-3.37q-4.75-3.55-5.94-8a18.2,18.2,0,0,1-.1-9,28.26,28.26,0,0,1,3.76-8.7,37.56,37.56,0,0,1,5.84-7.13A19.73,19.73,0,0,1,401,1.14a27.17,27.17,0,0,1,9.4-1.09,20.33,20.33,0,0,1,8.7,2.57,15.56,15.56,0,0,1,6.24,6.44,13.52,13.52,0,0,1,1.38,7.32,20.72,20.72,0,0,1-2.37,7.32q-1.39,2.78-4.36,1,1.19-4,2.28-7.22t-1.09-7.23c-1.72-2.77-3.66-4.35-5.84-4.75a10.15,10.15,0,0,0-6.73,1.29,25.41,25.41,0,0,0-6.72,5.54A47.88,47.88,0,0,0,396.27,20,46.67,46.67,0,0,0,392.51,28a12.83,12.83,0,0,0-1,6.23c.26,1.58.75,2.57,1.48,3a16.1,16.1,0,0,0,3.46,1.19l3.66.79c1.26.26,2.54.59,3.86,1A9.72,9.72,0,0,1,405.76,42a7,7,0,0,1,1.39,2.27A1.53,1.53,0,0,1,407,46a8.53,8.53,0,0,1-1.38,1.29c-1.72,1.06-3.4,2.11-5.05,3.17s-3.26,2.17-4.85,3.36a76.56,76.56,0,0,0-15.33,15.34,134.78,134.78,0,0,0-11.58,18.5q-2.19,4.35-4.06,8.81a48.86,48.86,0,0,0-2.87,9.4A61.16,61.16,0,0,0,360.74,120a45.62,45.62,0,0,0,2.87,14,26.74,26.74,0,0,0,4.95,8.11,26.1,26.1,0,0,0,7.22,5.74,26.66,26.66,0,0,0,18.11,2.57A46.58,46.58,0,0,0,409,144.12a57,57,0,0,0,12.47-10.69,59.42,59.42,0,0,0,9-13.75,50.19,50.19,0,0,0,4.55-15,32.65,32.65,0,0,0,.2-6.23,15.7,15.7,0,0,0-1.38-5.64,13.77,13.77,0,0,0-3.27-4.46,10.72,10.72,0,0,0-5.44-2.47,33.56,33.56,0,0,0-8-.59A13.71,13.71,0,0,0,409.72,88Q406,90.8,402.5,93.76a26.57,26.57,0,0,0-5.84,7.12,8.72,8.72,0,0,1-2.37,2.57,1,1,0,0,1-1.09.2,6.34,6.34,0,0,0-1.68-.2,41.53,41.53,0,0,1,7.32-9.89,45.76,45.76,0,0,1,5-4.65c1.71-1.39,3.49-2.8,5.34-4.26q2.17-1.58,4.35-2.87t4.36-2.67a65.7,65.7,0,0,0,9.3-6.83,42.12,42.12,0,0,0,8.11-9.2,21,21,0,0,0,3.46-10.29q.3-5.34-4.45-10.09a13,13,0,0,0-1.38-1.19c-.53-.39-1.32-.92-2.38-1.58-.39-1.32-.23-2,.5-1.88a6.94,6.94,0,0,1,2.87,1.28,19.85,19.85,0,0,1,3.56,3.17,13,13,0,0,1,2.37,3.37,17.22,17.22,0,0,1,1.49,9.59,22.39,22.39,0,0,1-3.56,9,47.84,47.84,0,0,1-7.62,8.7Q425.36,77.54,419.62,81.88Z"/><path d="M194.52,59.32a3.55,3.55,0,0,0,2.08.79h2.67a4.68,4.68,0,0,0,2.47-.59c.66-.26,1.06-1.22,1.19-2.87a26,26,0,0,1,.59-4.06q.6-2.76-2.37-3.76c-.93-.26-1.88-.56-2.87-.89A5.19,5.19,0,0,0,195,48a9.41,9.41,0,0,0-1.18,4.55c0,1.59-.07,3.24-.2,4.95A1.73,1.73,0,0,0,194.52,59.32Z"/><path d="M328.39,74.86a2.1,2.1,0,0,1-1.18-1.09c-.53,3-1.09,6.2-1.69,9.5a50.92,50.92,0,0,1-2.47,9.1q-2.18,5.14-3.66,8.41t-2.67,5.34a13,13,0,0,1-2.28,3.07,10,10,0,0,1-2.27,1.58,16.79,16.79,0,0,1-1.39-5.54c-.13-1.84-.27-3.69-.4-5.54V82.28a21.92,21.92,0,0,0-2-9.7,13.91,13.91,0,0,0-4-5.14,9.73,9.73,0,0,0-6.09-1.79,37.62,37.62,0,0,0-6.73,7.43,83.49,83.49,0,0,0-5.14,8.6L282.68,88a2.72,2.72,0,0,1-1.09,1.18c-.46.27-1.09.14-1.88-.39a16.05,16.05,0,0,0-.1-1.88,16.17,16.17,0,0,1-.1-1.88V68.82a8.11,8.11,0,0,0-.59-3.17,3.74,3.74,0,0,0-2.57-2,6.27,6.27,0,0,1-1.88-.7c-.6-.32-1.23-.62-1.88-.89a8.8,8.8,0,0,0-3,.2q.39,5.94.79,11.38l.15,2c-.41,1.34-.79,2.66-1.14,3.92q-.8,2.86-1.39,6a147,147,0,0,1-3.85,15.44,65.63,65.63,0,0,1-6.44,14.25,2.86,2.86,0,0,1-1,1.18,11.19,11.19,0,0,0-1.38,1.19c-.4-.66-.73-1.19-1-1.58a4.71,4.71,0,0,1-.59-1.19q-.6-3-1.19-5.94a44.41,44.41,0,0,1-.79-5.93q-.41-7.92-.5-15.74t.3-15.73c.13-1.19.23-2.4.3-3.66s.1-2.47.1-3.66c0-.26-.34-.72-1-1.39-.67,0-1.42,0-2.28.1s-1.68.17-2.47.3l-3.17,4.16-3-2.77a8.19,8.19,0,0,0-4.55-2.28A7.58,7.58,0,0,0,231,64.07a6.66,6.66,0,0,0-1.59,1.29q-.58.69-1.38,1.68a45,45,0,0,0-4.69,7.33h-.06c-.09.21-.18.46-.27.68a50,50,0,0,0-2.8,6.94q-.83,2.63-1.41,5.29c-.16.4-.31.79-.46,1.14q-2,4.36-3.86,8.61t-4.06,8.61a11.53,11.53,0,0,1-2.57,3.66,12.57,12.57,0,0,1-4.16,2.47,9.63,9.63,0,0,1-1.78-6.92q.19-4,.1-7.72a19.9,19.9,0,0,1,1.29-7.52,2.71,2.71,0,0,0,.29-1.58,5.52,5.52,0,0,1,.1-1.78v-5c0-1.65.07-3.33.2-5a9.6,9.6,0,0,0-.2-3.36,4.37,4.37,0,0,0-1.78-2.57,11.25,11.25,0,0,0-3.86-2,5.08,5.08,0,0,0-4.25.79c.13,1.06.23,2.08.29,3.07s.1,2,.1,3.06q-.19,4.36-.39,8.61c-.14,2.84-.2,5.78-.2,8.81,0,.14,0,.28,0,.42a36.39,36.39,0,0,1-8.58,11.78c-9.87,9-23.22,12.91-35.87,16.18a337.51,337.51,0,0,1-81.64,10.44A393.94,393.94,0,0,1,0,126c1.9,1.36,3.82,2.68,5.78,3.94a396.73,396.73,0,0,0,57.8,4.5,343.57,343.57,0,0,0,82.55-9.59c12.73-3.12,26.12-6.64,36.86-14.51A43.85,43.85,0,0,0,193.9,98.78c0,.14,0,.28,0,.42.19,2.17.36,4.39.49,6.63a10.54,10.54,0,0,0,1.68,4.45,18.54,18.54,0,0,0,3.07,3.46q4.76,4,9.7,0a19.91,19.91,0,0,0,5.34-7.71l3.21-7.79c0,.35,0,.7,0,1.06a13.93,13.93,0,0,0,2.18,7.72,8.36,8.36,0,0,0,6.73,3.75,7.92,7.92,0,0,0,3.26-.19,10,10,0,0,0,2.87-2,21.37,21.37,0,0,0,4.55-5.25c1.06-1.78,2.18-3.85,3.37-6.23a27,27,0,0,0,1.68-5,19.06,19.06,0,0,1,1.88-4.94,3.24,3.24,0,0,0,1.39.39V90a11.24,11.24,0,0,0,.19,2.17c.27,2.64.5,5.22.7,7.72a65.7,65.7,0,0,0,1.09,7.72,35.28,35.28,0,0,0,1.18,5.14q.8,2.58,1.78,5,2,4.35,4.36,4.55c1.58.14,3.16-1.12,4.75-3.76A71.24,71.24,0,0,0,265.26,106a95.93,95.93,0,0,0,3.37-11.58q1.19-5.45,1.78-9.7c.17-1.25.36-2.37.56-3.4.08,1,.15,2.08.23,3.11.26,3.56.4,7.12.4,10.68v10.69c0,1.06,0,2.41.1,4s.09,3.4.09,5.25v9.3a7.26,7.26,0,0,0,2.18,5.34,3.24,3.24,0,0,0,2.38,1,8.55,8.55,0,0,0,3-.59l.8-4.35c0-.93,0-2.18.09-3.76s.1-3.2.1-4.85,0-3.27.1-4.85.1-2.84.1-3.76A45.74,45.74,0,0,1,286.83,89c.8-1.32,1.52-2.68,2.18-4.06s1.39-2.74,2.18-4.06c1.05-1.84,2.14-3.56,3.26-5.14s2.28-3.23,3.47-5a3.35,3.35,0,0,1,1.28-.69,9.88,9.88,0,0,0,1.88-.89c.27,1.32.5,2.47.7,3.46a16.23,16.23,0,0,1,.29,3.07,58.72,58.72,0,0,1,.1,5.93c-.07,2,0,4,.1,6.14q0,4,.1,8t.3,8a32.7,32.7,0,0,0,.81,5.34,14.62,14.62,0,0,0,2.23,5c1.63,2.51,3.5,3.89,5.63,4.16s4.06-1.12,5.77-4.16l.6-1.19q3.36-7.32,6.33-14.25a71.94,71.94,0,0,0,4.55-16.22c.26-.93.53-2,.79-3.27s.53-2.47.79-3.66C329.51,75.29,328.92,75.05,328.39,74.86ZM243.5,78.72Q241.31,86,239,92.87a27.75,27.75,0,0,1-8,12c-1.46,1.19-2.57,1.62-3.37,1.28a3.45,3.45,0,0,1-1.78-2.37,15,15,0,0,1-.59-4.45,26,26,0,0,1,.4-4.75,68.89,68.89,0,0,1,3.95-14.35,53.86,53.86,0,0,1,7.72-13.36,5.42,5.42,0,0,1,2.38,2,20.18,20.18,0,0,1,2.07,3.46A22.57,22.57,0,0,1,243.2,76,6.38,6.38,0,0,1,243.5,78.72Z"/><path d="M476.28,59.32h3a4.79,4.79,0,0,0,2.51-1,2.63,2.63,0,0,0,1-2.17,18,18,0,0,1,.6-4.06c.39-1.65.26-2.67-.4-3.07a5,5,0,0,0-2.14-1.19c-.9-.26-1.74-.52-2.52-.79a2.48,2.48,0,0,0-2.13.2,2.28,2.28,0,0,0-1.35,1.58q-.78,2.39-1.37,4.75a11.91,11.91,0,0,0-.19,4.75A5.62,5.62,0,0,0,476.28,59.32Z"/><path d="M983.64,104.64A684.84,684.84,0,0,1,901.15,88c-27-7.23-53-17.06-79.51-25.77C788.91,51.5,753.22,43.33,718.77,49.86A62.78,62.78,0,0,0,694.07,60c-7.72,5.21-15.65,10.71-22.58,17.14-7.34,6.8-13,15-19.52,22.55a43.72,43.72,0,0,1-5.94,5.64,17.7,17.7,0,0,1-6,3.27,6.81,6.81,0,0,1-5.25-.5c-1.58-.85-2.83-2.8-3.76-5.83a41,41,0,0,1,.4-5.25q.39-3.06,1.09-6.23T634,84.55c.53-2,1-3.86,1.39-5.44a31.46,31.46,0,0,0,10.88-5.54q5.14-4,7.92-12.86a8.09,8.09,0,0,0,.29-4,8.18,8.18,0,0,0-1.87-4.45,6.43,6.43,0,0,0-4.46-2.18c-1.91-.2-4.39.69-7.42,2.67-.66.66-1.35,1.36-2.08,2.08s-1.42,1.48-2.08,2.28a58.5,58.5,0,0,0-9.36,18.56,4.68,4.68,0,0,1-.53.24A52.87,52.87,0,0,0,622,79.31q-2.47,2-5,4.16t-4.75,4.45l-4,4.06-4.36,4q-2.77-2-5-3.86A44.69,44.69,0,0,0,594,88.61a7.54,7.54,0,0,1-3.46-4.25,9.49,9.49,0,0,1,.09-5.25,55.76,55.76,0,0,1,1.79-5.54,11.71,11.71,0,0,1,3.76-4.35c1.84-1.59,3.33-2.34,4.45-2.28a3.29,3.29,0,0,1,2.67,1.68,1.88,1.88,0,0,0,2.08.6c.72-.27.62-1.12-.3-2.58a15.22,15.22,0,0,0-2.67-2.77,10.4,10.4,0,0,0-4.45-2,9.22,9.22,0,0,0-6.53.8c-2.64,1.45-4.43,3-5.35,4.55A28.87,28.87,0,0,0,583.5,74a40.48,40.48,0,0,1-4.06,4.65q-2.48,2.47-5,4.94c-1.72,1.66-3.4,3.2-5,4.65s-3,2.71-4.06,3.77c-.66.66-1.35,1.32-2.07,2s-1.49,1.32-2.28,2c-1.72-1.31-3.36-2.6-5-3.86a52.71,52.71,0,0,0-4.94-3.46q-5.16-3.36-3.17-9.5a30.28,30.28,0,0,1,2.77-6.73,19.09,19.09,0,0,1,4.75-5.54q3.36-2.76,5.54-2c1.45.53,2.38,2.12,2.77,4.75a14.08,14.08,0,0,1,.4,3.37v6.33c1.58.53,2.5.07,2.77-1.39a12.93,12.93,0,0,0,.69-5.73,15.59,15.59,0,0,0-1.68-5.64A14.68,14.68,0,0,0,562.23,62,13.76,13.76,0,0,0,557,59.32a9.63,9.63,0,0,0-6.33,1,16.59,16.59,0,0,0-6.43,5.74A33.4,33.4,0,0,0,540.56,74a12.78,12.78,0,0,0-.69,4.22c-.7,1.29-1.39,2.59-2.08,3.89-1.06,2-2.11,3.89-3.17,5.74a53.19,53.19,0,0,1-3.56,5.44c-1.58,2.18-3.3,4.32-5.14,6.43a43.72,43.72,0,0,1-5.94,5.64,17.74,17.74,0,0,1-6,3.27,6.79,6.79,0,0,1-5.24-.5c-1.59-.85-2.84-2.8-3.76-5.83a42.71,42.71,0,0,1,.39-5.25q.41-3.06,1.09-6.23t1.49-6.24c.52-2,1-3.86,1.38-5.44a31.5,31.5,0,0,0,10.89-5.54q5.15-4,7.91-12.86a8,8,0,0,0,.3-4,8.26,8.26,0,0,0-1.88-4.45,6.41,6.41,0,0,0-4.45-2.18q-2.88-.3-7.42,2.67l-2.08,2.08c-.73.73-1.42,1.48-2.08,2.28a58.73,58.73,0,0,0-9.27,18.25A3.26,3.26,0,0,0,501,76a15.41,15.41,0,0,0-.5,2.17c0,.18-.05.33-.08.5s-.12.5-.17.73a.94.94,0,0,0,0,.16c-.13.39-.3.86-.5,1.38s-.43,1.26-.69,2.18q-1,2.58-1.88,5.05T495.24,93l-5.54,9.9c-.79,1.45-1.42,2.57-1.88,3.36a18,18,0,0,1-1.29,2,8.55,8.55,0,0,1-1.28,1.39l-1.88,1.58a5.42,5.42,0,0,1-.4-2.08V107q-.2-6.93-.1-13.76t.1-13.75V74.46A6.9,6.9,0,0,0,481,69.81l-7.76-.59a21,21,0,0,0,.2,3.76q.39,11.28.69,22.56t.9,22.56a22.69,22.69,0,0,1-1.1,8.31,27.73,27.73,0,0,1-3.85,7.32A160.7,160.7,0,0,0,452.69,161q-2.37,4.76-4.94,9.3c-1.72,3-3.37,6.14-4.95,9.3a35.57,35.57,0,0,0-3.56,8.71c-.53,2.64-1,5.28-1.49,7.92s-.82,5.34-1.09,8.11a17.1,17.1,0,0,0,0,5.15c.27,1.71.53,3.42.8,5.14a9.12,9.12,0,0,0,1.78,4.16,9.88,9.88,0,0,0,3.36,2.77,31.68,31.68,0,0,0,12.27,3.56,12.61,12.61,0,0,0,6.73-1,25.91,25.91,0,0,0,5.94-4A18.64,18.64,0,0,0,472,214a49.28,49.28,0,0,0,2.47-7.42,182.87,182.87,0,0,0,4-22.66q1.24-11.39,2.79-22.86,1-8.91,1.26-17.91T483,125V123a5.42,5.42,0,0,1,.4-2.08c.26-.79.49-1.59.69-2.38a4.18,4.18,0,0,1,1.09-2,39.84,39.84,0,0,0,5.64-8.11,91,91,0,0,1,5-8.51c.71-1.15,1.3-2.21,1.8-3.21,0,.59,0,1.2,0,1.83a15.45,15.45,0,0,0,1.88,7.71,19.21,19.21,0,0,0,5.24,5.94,7.9,7.9,0,0,0,8.31.79c2.11-1.19,4-2.27,5.74-3.26a33,33,0,0,0,5.44-4.06,60.48,60.48,0,0,0,6.34-6.83q3.45-4.24,8.21-11.38a31,31,0,0,0,2.14-3.92,13.12,13.12,0,0,0,4.58,5.9q3.38,2.38,7.33,4.95a13.48,13.48,0,0,1,2.77,2.28,6.82,6.82,0,0,1,1.58,3.46c-.4.66-.82,1.38-1.29,2.18a10.6,10.6,0,0,1-1.68,2.17,78.33,78.33,0,0,0-5.54,7.52q-2.58,4-5.14,7.92a49.53,49.53,0,0,0-6.24,15.34,43.22,43.22,0,0,0-.1,16.72,13.39,13.39,0,0,0,1.59,3,7.92,7.92,0,0,0,3.36,2.77.4.4,0,0,1,.3.1.4.4,0,0,0,.29.09,21.92,21.92,0,0,0,7.23,0,10.64,10.64,0,0,0,6.23-3.76,33.06,33.06,0,0,1,2.08-3c.72-.93,1.42-1.92,2.08-3a36.4,36.4,0,0,0,4-9.3,90.68,90.68,0,0,0,2.08-9.9q.79-5.94,1.29-9.4a27.13,27.13,0,0,0,.2-6.43,32.8,32.8,0,0,0-1.29-6.23q-1-3.27-3-8.41,2.17-3,4.65-5.84A36.24,36.24,0,0,1,574,87.42c1.45-1,2.94-2.2,4.45-3.46a36,36,0,0,0,4.46-4.45,18.38,18.38,0,0,0,1.68,5.64,10.45,10.45,0,0,0,3.66,4.25c1.19.93,2.41,1.78,3.66,2.58s2.48,1.58,3.66,2.37a13.22,13.22,0,0,1,2.77,2.28,8.15,8.15,0,0,1,1.78,3.46l-3,4.35c-1.46,1.85-2.84,3.7-4.16,5.54s-2.64,3.76-4,5.74c0-.13-.39.47-1.19,1.78a40.66,40.66,0,0,0-2.57,5.35,38.48,38.48,0,0,0-2.17,7.52,21.91,21.91,0,0,0,0,8.31,13.28,13.28,0,0,0,1.58,3,7.85,7.85,0,0,0,3.36,2.77.82.82,0,0,0,.6.2,19.17,19.17,0,0,0,7.22.19,10.33,10.33,0,0,0,6.23-3.95,53.53,53.53,0,0,0,4.16-5.94,19.69,19.69,0,0,0,2.27-6.24,50.85,50.85,0,0,0,1.09-9,64.46,64.46,0,0,0-.49-10.49,46.18,46.18,0,0,0-2.67-10.68q2.17-3,4.65-5.84a36.24,36.24,0,0,1,5.64-5.25q3-2.37,7.42-6.23c.72-.63,1.42-1.22,2.1-1.79l-.62,2.68c-.39,1.72-.76,3.43-1.09,5.15a44.93,44.93,0,0,0-.69,5.24q-.2,2.67-.2,6a15.56,15.56,0,0,0,1.88,7.71,19.25,19.25,0,0,0,5.25,5.94,7.9,7.9,0,0,0,8.31.79c2.11-1.19,4-2.27,5.74-3.26a33.37,33.37,0,0,0,5.44-4.06c8.85-7.94,15.73-18.15,24.33-26.45a142.47,142.47,0,0,1,23.55-18.53c14.41-9,33.16-10.27,49.73-9.88,34.74.83,67.89,12.46,100.39,23.68,14.84,5.13,29.7,10.22,44.81,14.47a676.31,676.31,0,0,0,83,17.65c53.67,8,108.1,10.12,162.29,8q2.89-1.58,5.72-3.24C1090.6,113.72,1036.76,112.08,983.64,104.64Zm-345.32-37a49.45,49.45,0,0,1,3.06-6.23,40.78,40.78,0,0,1,3.37-4.95c1.12-1.38,2-2.47,2.67-3.26a5,5,0,0,1,1.78.39A4.45,4.45,0,0,1,651,55a4.62,4.62,0,0,1,.89,2.67A9.4,9.4,0,0,1,651,61.7,28.15,28.15,0,0,1,646.43,69a18.29,18.29,0,0,1-4.55,3.76,11.11,11.11,0,0,1-3.66,1.38,8,8,0,0,0-1.88.4A31.46,31.46,0,0,1,638.32,67.63Zm-126.06,0a49.47,49.47,0,0,1,3.07-6.23,40.79,40.79,0,0,1,3.36-4.95c1.12-1.38,2-2.47,2.67-3.26a5,5,0,0,1,1.79.39A4.52,4.52,0,0,1,524.93,55a4.69,4.69,0,0,1,.89,2.67,9.71,9.71,0,0,1-.89,4.06A28.15,28.15,0,0,1,520.37,69a18.29,18.29,0,0,1-4.55,3.76,11.11,11.11,0,0,1-3.66,1.38,8,8,0,0,0-1.88.4A32.59,32.59,0,0,1,512.26,67.63Zm-37.6,72.43q-.41,10.09-1.39,19.79t-2.57,19.6c-.52,2.63-.95,5.34-1.28,8.11s-.7,5.47-1.09,8.11c-.27,1.32-.5,2.61-.7,3.86s-.42,2.48-.69,3.66a23.77,23.77,0,0,1-2.57,7.13,36.77,36.77,0,0,1-4.16,5.93,12.06,12.06,0,0,1-5.83,4.16,17.55,17.55,0,0,1-7,.59,7.6,7.6,0,0,1-6.53-5.14c-.26-.93-.53-1.88-.79-2.87a24.88,24.88,0,0,1-.6-3.07,67.28,67.28,0,0,1,.2-8.9,28,28,0,0,1,2.18-8.51,7.89,7.89,0,0,0,.59-1.59c.14-.53.27-1.12.4-1.78a34.12,34.12,0,0,1,3.56-10.49q2.58-4.74,5.34-9.5c1.19-2,2.35-4,3.47-6a64.5,64.5,0,0,0,3.06-6.43q1.2-2.77,2.38-5.15a24.31,24.31,0,0,1,3-4.55c1.06-1.32,2-2.64,2.87-4s1.81-2.64,2.87-4a17.94,17.94,0,0,1,1.88-2c.72-.66,1.61-1.46,2.67-2.38a17.1,17.1,0,0,0,.59,3.07A4.72,4.72,0,0,1,474.66,140.06Zm86.28-19.79c-.53,3-1.19,6.07-2,9.11s-1.65,6.07-2.57,9.1a20.76,20.76,0,0,1-3.17,7q-2.18,3.06-4.75,6a19,19,0,0,1-3.26,3,6.35,6.35,0,0,1-4.26,1,6.77,6.77,0,0,1-2-3.66,34.06,34.06,0,0,1-.79-5.34,33.34,33.34,0,0,1,.1-5.74,32.76,32.76,0,0,1,.89-5,55.09,55.09,0,0,1,5.64-13.56,92.41,92.41,0,0,1,8.41-12c.79-1.05,1.55-2.11,2.28-3.16a8.23,8.23,0,0,1,2.87-2.58,2.76,2.76,0,0,1,2,1.29,4.62,4.62,0,0,1,.39,1.88c.13,2.11.27,4.22.4,6.33A34.34,34.34,0,0,1,560.94,120.27Zm28.18-4.11a.33.33,0,0,1-.08-.24C589.1,115.92,589.11,116,589.12,116.16Zm13.18,9.06a39.55,39.55,0,0,1-7.91,13.06,25,25,0,0,1-3.37,3.17,2.9,2.9,0,0,1-3.76,0c-.79-.66-1.32-2-1.58-4a25.29,25.29,0,0,1,.2-7,38.24,38.24,0,0,1,2.57-8.91,36.69,36.69,0,0,1,5.94-9.6l0,0a3.25,3.25,0,0,1,.63-.63l.2-.2.79-1a25,25,0,0,0,2.37-3.16,7.15,7.15,0,0,1,3-2.58,2.58,2.58,0,0,1,1.78,1.29,4.47,4.47,0,0,1,.4,1.88q.39,3.17.59,7.72A25.41,25.41,0,0,1,602.3,125.22Z"/></g></g></svg>